<svg id="Calque_1" data-name="Calque 1" xmlns="http://www.w3.org/2000/svg" viewBox="0 0 94.31 52.51"><defs><style>.cls-1{fill:#2e3191;}</style></defs><path class="cls-1" d="M58.61,44.06l0,0h0a12.85,12.85,0,0,0-18.24.3h0a2.06,2.06,0,0,0,0,2.92,2.09,2.09,0,0,0,2.95,0,8.74,8.74,0,0,1,12.45-.17A2.09,2.09,0,0,0,58.68,47a2.15,2.15,0,0,0-.07-2.95ZM42.55,46.51v0Z" transform="translate(-2.69 -23.78)"/><path class="cls-1" d="M49.22,50a3.3,3.3,0,0,0-3,3.36,3.37,3.37,0,0,0,3,3.32h.88A3.36,3.36,0,0,0,49.22,50Z" transform="translate(-2.69 -23.78)"/><path class="cls-1" d="M34.45,34.43a4.44,4.44,0,0,0,1.27-1.82c.06-.19.12-.39.19-.58A24,24,0,0,1,49.26,28c8.2-.11,13.77,3.32,18.06,7.22a2.08,2.08,0,0,0,2.93,0,2.18,2.18,0,0,0-.07-3,29.58,29.58,0,0,0-19.66-8.35l-2.67,0A30.12,30.12,0,0,0,36.24,27h0c-.75.39-1.47.8-2.17,1.24-.53.1-1.24.18-1.85.3a5,5,0,0,0-2,1h0L23,35.71l.57.66,7.28-6.22.6.7-7.28,6.23.62.73L32,31.59l.6.69-7.28,6.23.64.75L33.26,33l.56.66-7.28,6.23.63.73,7.28-6.22Z" transform="translate(-2.69 -23.78)"/><path class="cls-1" d="M68.76,40a8,8,0,0,0-5.41-2.8A20.7,20.7,0,0,0,58,33.81a20.13,20.13,0,0,0-9.12-1.69,22.14,22.14,0,0,0-8.44,2.06,19.72,19.72,0,0,0-6,4.41h0a2.07,2.07,0,0,0,3,2.87h0a16.78,16.78,0,0,1,12-5.19,16.53,16.53,0,0,1,11.37,4.19,8,8,0,0,0,3.45,4.72c3.93,2.66,5.82.65,5.9.56h0S72,43.59,68.76,40Zm.35,4.3a9,9,0,0,0-3.66-4.6A5.87,5.87,0,0,0,62.87,39a1.84,1.84,0,0,0-.95.15s.09-.61.58-.72c0,0,2.24-.85,4.66,1.52S69.4,43.89,69.11,44.28Z" transform="translate(-2.69 -23.78)"/><path class="cls-1" d="M10.57,76.17H9.16V71L7.21,76.17H6L4.1,71v5.19H2.69V67H4l2.63,7,2.65-7h1.31Z" transform="translate(-2.69 -23.78)"/><path class="cls-1" d="M18.66,76.17H12.54V67h6.12v1.36H13.93v2.48h4.13v1.26H13.93v2.74h4.73Z" transform="translate(-2.69 -23.78)"/><path class="cls-1" d="M26.89,76.17H25.62L21.7,69.81v6.36H20.3V67h1.28l3.93,6.37V67h1.38Z" transform="translate(-2.69 -23.78)"/><path class="cls-1" d="M35.71,72.27q0,4-3.45,4c-2.3,0-3.46-1.34-3.46-4V67h1.4v5.3a3.66,3.66,0,0,0,.37,1.88,1.83,1.83,0,0,0,1.69.77,1.81,1.81,0,0,0,1.68-.77,3.68,3.68,0,0,0,.37-1.89V67h1.4Z" transform="translate(-2.69 -23.78)"/><path class="cls-1" d="M48.11,68.61,47,69.49a5.86,5.86,0,0,0-.9-.91A2,2,0,0,0,45,68.22c-1.58,0-2.37,1.12-2.37,3.35s.79,3.35,2.37,3.35a1.93,1.93,0,0,0,1.18-.37,5.27,5.27,0,0,0,.9-.9l1.08.89a6.72,6.72,0,0,1-1.37,1.26,3.27,3.27,0,0,1-1.79.49A3.31,3.31,0,0,1,42,74.84a6.78,6.78,0,0,1,0-6.54,3.62,3.62,0,0,1,4.72-1A6.82,6.82,0,0,1,48.11,68.61Z" transform="translate(-2.69 -23.78)"/><path class="cls-1" d="M56.75,71.57a5.75,5.75,0,0,1-.84,3.27,3.73,3.73,0,0,1-5.9,0,6.71,6.71,0,0,1,0-6.54,3.73,3.73,0,0,1,5.9,0A5.75,5.75,0,0,1,56.75,71.57Zm-1.39,0c0-2.23-.8-3.35-2.4-3.35s-2.4,1.12-2.4,3.35.8,3.35,2.4,3.35S55.36,73.8,55.36,71.57Z" transform="translate(-2.69 -23.78)"/><path class="cls-1" d="M64.66,76.17H63.38l-3.91-6.36v6.36h-1.4V67h1.28l3.93,6.37V67h1.38Z" transform="translate(-2.69 -23.78)"/><path class="cls-1" d="M73.23,76.17H72L68,69.81v6.36H66.64V67h1.28l3.92,6.37V67h1.39Z" transform="translate(-2.69 -23.78)"/><path class="cls-1" d="M81.32,76.17H75.2V67h6.12v1.36H76.59v2.48h4.14v1.26H76.59v2.74h4.73Z" transform="translate(-2.69 -23.78)"/><path class="cls-1" d="M89.24,68.61l-1.08.88a5.86,5.86,0,0,0-.9-.91,2,2,0,0,0-1.18-.36c-1.59,0-2.38,1.12-2.38,3.35s.79,3.35,2.38,3.35a2,2,0,0,0,1.18-.37,5.27,5.27,0,0,0,.9-.9l1.08.89a6.72,6.72,0,0,1-1.37,1.26,3.62,3.62,0,0,1-4.72-1,6.78,6.78,0,0,1,0-6.54,3.32,3.32,0,0,1,2.93-1.45,3.36,3.36,0,0,1,1.79.49A6.82,6.82,0,0,1,89.24,68.61Z" transform="translate(-2.69 -23.78)"/><path class="cls-1" d="M97,68.33H94.25v7.84h-1.4V68.33H90.09V67H97Z" transform="translate(-2.69 -23.78)"/></svg>